# xmcd
#
# Track frame offsets:
# 150
# 11647
# 28177
# 43758
# 65559
# 84851
# 96567
# 115333
# 139109
#
# Disc length: 2174 seconds
#
#
# Revision: 0
# Processed by: cddbd v1.5.2PL0 Copyright (c) Steve Scherf et al.
# Submitted via: Nero 7, 11, 10, 0 
#
DISCID=79087c09
DTITLE=Big George Jackson - Serious Bidness
DYEAR=1991
DGENRE=Blues
TTITLE0=Gone Cold
TTITLE1=Fats Jump
TTITLE2=Funky Bitch
TTITLE3=You Drive Me Crazy
TTITLE4=Born Blind
TTITLE5=Hot Babe
TTITLE6=You Slicked Me
TTITLE7=Too Many Baby's
TTITLE8=Tired Of Your Games
EXTD=
EXTT0=Gone Cold
EXTT1=Fats Jump
EXTT2=Funky Bitch
EXTT3=You Drive Me Crazy
EXTT4=Born Blind
EXTT5=Hot Babe
EXTT6=You Slicked Me
EXTT7=Too Many Baby's
EXTT8=Tired Of Your Games
PLAYORDER=
